<svg width="30" height="30" viewBox="0 0 30 30" fill="none" xmlns="http://www.w3.org/2000/svg">
<path fill-rule="evenodd" clip-rule="evenodd" d="M13.08 4.1025C13.3037 3.83413 13.5812 3.61563 13.8945 3.46109C14.2079 3.30654 14.5501 3.2194 14.8992 3.20526C15.2483 3.19113 15.5965 3.25032 15.9213 3.37903C16.2461 3.50774 16.5404 3.70309 16.785 3.9525L16.92 4.1025L21.835 10H25.5663C25.8286 9.99945 26.0881 10.0543 26.3277 10.161C26.5674 10.2677 26.7818 10.4238 26.9569 10.6191C27.132 10.8144 27.2639 11.0445 27.344 11.2943C27.424 11.5441 27.4503 11.808 27.4213 12.0688L27.3063 13.0263L27.1813 13.9513L27.0788 14.6438L26.96 15.3875L26.825 16.1688L26.6725 16.9788L26.5025 17.805C26.4125 18.2217 26.3159 18.6379 26.2125 19.0538C25.9358 20.1513 25.5884 21.2298 25.1725 22.2825L24.8963 22.9575L24.6288 23.5675L24.3763 24.11L24.2588 24.3525L23.9475 24.965C23.5475 25.7275 22.7925 26.1775 21.9938 26.2425L21.7938 26.25H8.19378C7.75678 26.2533 7.3271 26.1378 6.95063 25.9159C6.57415 25.6939 6.26503 25.3739 6.05628 24.99L5.76628 24.4275L5.54128 23.965L5.42253 23.7088L5.17253 23.1475C4.60165 21.8219 4.13849 20.4525 3.78753 19.0525C3.71967 18.7807 3.65466 18.5082 3.59253 18.235L3.41503 17.425L3.25628 16.6325L3.11628 15.8663L2.99128 15.1325L2.88253 14.44L2.79003 13.7988L2.67753 12.945L2.59503 12.25L2.57378 12.0588C2.54792 11.8132 2.57115 11.5649 2.64213 11.3284C2.71311 11.0919 2.83041 10.8718 2.9872 10.6811C3.144 10.4903 3.33717 10.3326 3.55547 10.2172C3.77377 10.1018 4.01284 10.0309 4.25878 10.0088L4.42878 10H8.16503L13.08 4.1025ZM12.4513 15.9025C12.3667 15.6076 12.1766 15.354 11.9172 15.1902C11.6578 15.0263 11.3473 14.9636 11.0446 15.014C10.7419 15.0643 10.4684 15.2242 10.276 15.4632C10.0836 15.7022 9.98582 16.0036 10.0013 16.31L10.0175 16.455L10.6425 20.205L10.6738 20.3475C10.7583 20.6424 10.9484 20.896 11.2078 21.0598C11.4672 21.2237 11.7778 21.2864 12.0805 21.2361C12.3831 21.1857 12.6567 21.0258 12.8491 20.7868C13.0415 20.5478 13.1392 20.2464 13.1238 19.94L13.1075 19.795L12.4825 16.045L12.4513 15.9025ZM18.955 15.0175C18.6529 14.9671 18.3428 15.0294 18.0836 15.1925C17.8243 15.3557 17.634 15.6083 17.5488 15.9025L17.5175 16.045L16.8925 19.795C16.8404 20.1095 16.9103 20.4321 17.0881 20.6967C17.2659 20.9613 17.5381 21.148 17.8489 21.2186C18.1598 21.2891 18.4859 21.2383 18.7606 21.0764C19.0352 20.9144 19.2375 20.6537 19.3263 20.3475L19.3575 20.205L19.9825 16.455C20.0367 16.1281 19.959 15.7931 19.7663 15.5236C19.5736 15.254 19.2818 15.072 18.955 15.0175ZM15 5.7025L11.4188 10H18.5813L15 5.7025Z" fill="#20CFBA"/>
</svg>
