<svg width="33" height="30" viewBox="0 0 33 30" fill="none" xmlns="http://www.w3.org/2000/svg">
<path d="M14.85 30V26.6667H28.05V14.8333C28.05 11.5833 26.9296 8.82667 24.6889 6.56333C22.4482 4.3 19.7186 3.16778 16.5 3.16667C13.2814 3.16556 10.5523 4.29778 8.3127 6.56333C6.0731 8.82889 4.9522 11.5856 4.95 14.8333V25H3.3C2.3925 25 1.6159 24.6739 0.9702 24.0217C0.3245 23.3694 0.0011 22.5844 0 21.6667V18.3333C0 17.75 0.14465 17.2017 0.43395 16.6883C0.72325 16.175 1.1286 15.765 1.65 15.4583L1.77375 13.25C1.99375 11.3611 2.53715 9.61111 3.40395 8C4.27075 6.38889 5.357 4.98611 6.6627 3.79167C7.9684 2.59722 9.4666 1.66667 11.1573 1C12.848 0.333333 14.6289 0 16.5 0C18.3711 0 20.1448 0.333333 21.8212 1C23.4976 1.66667 24.9964 2.59056 26.3175 3.77167C27.6386 4.95278 28.7248 6.34833 29.5762 7.95833C30.4276 9.56833 30.9776 11.3183 31.2262 13.2083L31.35 15.375C31.8725 15.625 32.2784 16 32.5677 16.5C32.857 17 33.0011 17.5278 33 18.0833V21.9167C33 22.4722 32.8559 23 32.5677 23.5C32.2795 24 31.8736 24.375 31.35 24.625V26.6667C31.35 27.5833 31.0271 28.3683 30.3814 29.0217C29.7357 29.675 28.9586 30.0011 28.05 30H14.85ZM11.55 18.3333C11.0825 18.3333 10.6909 18.1733 10.3752 17.8533C10.0595 17.5333 9.9011 17.1378 9.9 16.6667C9.8989 16.1956 10.0573 15.8 10.3752 15.48C10.6931 15.16 11.0847 15 11.55 15C12.0153 15 12.4074 15.16 12.7264 15.48C13.0454 15.8 13.2033 16.1956 13.2 16.6667C13.1967 17.1378 13.0383 17.5339 12.7248 17.855C12.4113 18.1761 12.0197 18.3356 11.55 18.3333ZM21.45 18.3333C20.9825 18.3333 20.5909 18.1733 20.2752 17.8533C19.9595 17.5333 19.8011 17.1378 19.8 16.6667C19.7989 16.1956 19.9573 15.8 20.2752 15.48C20.5931 15.16 20.9847 15 21.45 15C21.9153 15 22.3074 15.16 22.6264 15.48C22.9454 15.8 23.1033 16.1956 23.1 16.6667C23.0967 17.1378 22.9383 17.5339 22.6248 17.855C22.3113 18.1761 21.9197 18.3356 21.45 18.3333ZM6.64125 15.75C6.44875 12.8056 7.32875 10.2778 9.28125 8.16667C11.2337 6.05556 13.6675 5 16.5825 5C19.03 5 21.1821 5.78444 23.0389 7.35333C24.8957 8.92222 26.0161 10.93 26.4 13.3767C23.8975 13.3478 21.5946 12.6667 19.4914 11.3333C17.3882 10 15.7723 8.19444 14.6437 5.91667C14.2037 8.13889 13.2759 10.1183 11.8602 11.855C10.4445 13.5917 8.70485 14.89 6.64125 15.75Z" fill="#20CFBA"/>
</svg>
